<?xml version="1.0" encoding="UTF-8"?>
<svg id="Layer_1" data-name="Layer 1" xmlns="http://www.w3.org/2000/svg" viewBox="0 0 1500 1500">
  <defs>
    <style>
      .cls-1 {
        fill-rule: evenodd;
      }
    </style>
  </defs>
  <path class="cls-1" d="M639.66,404.25c-150.27,88.17-145.81,85.42-153.01,98.46-5.83,11.32-6.18,20.58-5.49,149.92l1.03,138.26,10.29,9.95c5.83,5.49,45.63,28.82,89.2,51.46l78.56,41.17,13.04-7.2c7.2-4.12,12.01-8.58,10.64-9.95-1.72-1.37-38.08-20.93-81.65-43.57-70.67-36.71-79.59-42.54-85.42-53.52-7.55-15.1-5.49-32.25,5.83-44.94,4.12-4.8,47.69-32.25,96.75-61.07,153.35-90.57,346.16-205.5,350.96-209.27,3.09-2.4-23.67-18.53-101.21-59.35-86.8-46.31-108.07-56.26-119.73-56.26s-28.13,8.23-109.78,55.92Z"/>
  <path class="cls-1" d="M797.81,609.06c-90.91,51.12-247.01,146.83-247.01,150.95,0,5.83,160.9,92.63,171.54,92.63,3.77,0,31.56-15.1,61.75-33.62,30.19-18.18,84.05-51.12,119.73-72.73,38.77-23.67,66.21-42.54,68.27-47,2.06-5.15,2.4-11.66.34-18.87-3.09-10.29-9.26-14.41-71.7-48.03-37.74-20.24-71.02-36.71-73.76-36.71-2.74-.34-15.78,5.83-29.16,13.38Z"/>
  <path class="cls-1" d="M983.42,738.06c-7.2,5.15-109.78,67.58-228.14,139.29-118.02,71.7-216.82,132.08-219.22,133.8-3.09,2.74,13.72,13.38,61.75,39.8,36.37,19.56,81.65,44.6,100.52,54.89,29.5,16.47,37.05,19.21,53.18,19.21,18.53.34,20.58-.69,108.07-54.55,143.06-87.48,145.46-89.2,153.01-105.67,5.83-13.04,6.52-23.67,6.52-118.36s-.34-103.95-6.86-110.47c-8.92-8.92-13.04-8.58-28.82,2.06Z"/>
</svg>
