<?xml version="1.0" encoding="UTF-8"?>
<svg id="Layer_1" data-name="Layer 1" xmlns="http://www.w3.org/2000/svg" viewBox="0 0 1500 1500">
  <defs>
    <style>
      .cls-1 {
        fill-rule: evenodd;
      }
    </style>
  </defs>
  <path class="cls-1" d="M567.22,186c-248.91,146.05-241.52,141.5-253.46,163.1-9.66,18.75-10.23,34.1-9.09,248.34l1.7,229.02,17.05,16.48c9.66,9.09,75.58,47.74,147.75,85.24l130.14,68.19,21.59-11.93c11.93-6.82,19.89-14.21,17.62-16.48-2.84-2.27-63.08-34.67-135.25-72.17-117.07-60.81-131.84-70.47-141.5-88.65-12.5-25-9.09-53.42,9.66-74.45,6.82-7.96,78.99-53.42,160.26-101.16,254.02-150.03,573.4-340.4,581.36-346.66,5.11-3.98-39.21-30.69-167.64-98.31-143.78-76.72-179.01-93.2-198.33-93.2s-46.6,13.64-181.85,92.63Z"/>
  <path class="cls-1" d="M829.2,525.27c-150.6,84.67-409.17,243.23-409.17,250.05,0,9.66,266.53,153.44,284.14,153.44,6.25,0,52.28-25,102.29-55.69,50.01-30.12,139.23-84.67,198.33-120.48,64.22-39.21,109.68-70.47,113.09-77.86,3.41-8.52,3.98-19.32.57-31.26-5.11-17.05-15.34-23.87-118.77-79.56-62.51-33.53-117.64-60.81-122.18-60.81-4.55-.57-26.14,9.66-48.3,22.16Z"/>
  <path class="cls-1" d="M1136.65,738.95c-11.93,8.52-181.85,111.95-377.91,230.72-195.49,118.77-359.16,218.79-363.14,221.63-5.11,4.55,22.73,22.16,102.29,65.92,60.24,32.39,135.25,73.88,166.51,90.93,48.87,27.28,61.37,31.82,88.08,31.82,30.69.57,34.1-1.14,179.01-90.36,236.98-144.91,240.95-147.75,253.46-175.03,9.66-21.59,10.8-39.21,10.8-196.06s-.57-172.19-11.37-182.99c-14.78-14.78-21.59-14.21-47.74,3.41Z"/>
</svg>