<?xml version="1.0" encoding="UTF-8"?>
<svg id="Layer_1" data-name="Layer 1" xmlns="http://www.w3.org/2000/svg" viewBox="0 0 1500 1500">
  <defs>
    <style>
      .cls-1 {
        fill: #fff;
        fill-rule: evenodd;
      }
    </style>
  </defs>
  <path class="cls-1" d="M575.75,211.68c-237.3,139.24-230.26,134.91-241.64,155.49-9.21,17.88-9.75,32.51-8.67,236.76l1.63,218.34,16.25,15.71c9.21,8.67,72.06,45.51,140.87,81.27l124.07,65.02,20.59-11.38c11.38-6.5,18.96-13.54,16.8-15.71-2.71-2.17-60.14-33.05-128.95-68.81-111.61-57.97-125.7-67.18-134.91-84.52-11.92-23.84-8.67-50.93,9.21-70.97,6.5-7.59,75.31-50.93,152.79-96.44,242.18-143.03,546.67-324.53,554.25-330.49,4.88-3.79-37.38-29.26-159.83-93.73-137.07-73.14-170.66-88.85-189.09-88.85s-44.43,13-173.37,88.31Z"/>
  <path class="cls-1" d="M825.51,535.13c-143.57,80.73-390.09,231.89-390.09,238.39,0,9.21,254.1,146.28,270.9,146.28,5.96,0,49.84-23.84,97.52-53.1,47.68-28.71,132.74-80.73,189.09-114.86,61.22-37.38,104.57-67.18,107.82-74.23,3.25-8.13,3.79-18.42.54-29.8-4.88-16.25-14.63-22.76-113.23-75.85-59.6-31.97-112.15-57.97-116.49-57.97-4.33-.54-24.92,9.21-46.05,21.13Z"/>
  <path class="cls-1" d="M1118.62,738.84c-11.38,8.13-173.37,106.73-360.29,219.97-186.38,113.23-342.41,208.59-346.21,211.3-4.88,4.33,21.67,21.13,97.52,62.85,57.43,30.88,128.95,70.43,158.75,86.69,46.59,26.01,58.51,30.34,83.98,30.34,29.26.54,32.51-1.08,170.66-86.14,225.93-138.16,229.72-140.87,241.64-166.87,9.21-20.59,10.29-37.38,10.29-186.92s-.54-164.16-10.84-174.46c-14.09-14.09-20.59-13.54-45.51,3.25Z"/>
</svg>